<svg xmlns="http://www.w3.org/2000/svg" xmlns:xlink="http://www.w3.org/1999/xlink">
    <defs>
        <symbol id="edit" viewBox="0 0 24 24" fill="none" stroke="currentColor" stroke-width="2">
            <path d="M12 20h9"/>
            <path d="M16.5 3.5a2.121 2.121 0 0 1 3 3L7 19l-4 1 1-4L16.5 3.5z"/>
        </symbol>

        <symbol id="cross" viewBox="0 0 24 24" fill="none" stroke="currentColor" stroke-width="2">
            <line x1="18" y1="6" x2="6" y2="18"/>
            <line x1="6" y1="6" x2="18" y2="18"/>
        </symbol>

        <symbol id="trash" viewBox="0 0 24 24" fill="none" stroke="currentColor" stroke-width="2">
            <polyline points="3 6 5 6 21 6"/>
            <path d="M19 6v14a2 2 0 0 1-2 2H7a2 2 0 0 1-2-2V6m3 0V4a2 2 0 0 1 2-2h4a2 2 0 0 1 2 2v2"/>
            <line x1="10" y1="11" x2="10" y2="17"/>
            <line x1="14" y1="11" x2="14" y2="17"/>
        </symbol>

        <symbol
            id="smile"
            viewBox="0 0 24 24" 
            fill="none" 
            stroke="currentColor" 
            stroke-width="2" 
            stroke-linecap="round" 
            stroke-linejoin="round" 
        >
            <circle cx="12" cy="12" r="10"/>
            <path d="M8 14s1.5 2 4 2 4-2 4-2"/>
            <line x1="9" y1="9" x2="9.01" y2="9"/>
            <line x1="15" y1="9" x2="15.01" y2="9"/>
        </symbol>

        <symbol
            id="meh"
            viewBox="0 0 24 24" 
            fill="none" 
            stroke="currentColor" 
            stroke-width="2" 
            stroke-linecap="round" 
            stroke-linejoin="round" 
        >
            <circle cx="12" cy="12" r="10"/>
            <line x1="8" y1="15" x2="16" y2="15"/>
            <line x1="9" y1="9" x2="9.01" y2="9"/>
            <line x1="15" y1="9" x2="15.01" y2="9"/>
        </symbol>


        <symbol
            id="frown"
            viewBox="0 0 24 24" 
            fill="none" 
            stroke="currentColor" 
            stroke-width="2" 
            stroke-linecap="round" 
            stroke-linejoin="round" 
        >
            <circle cx="12" cy="12" r="10"/>
            <path d="M16 16s-1.5-2-4-2-4 2-4 2"/>
            <line x1="9" y1="9" x2="9.01" y2="9"/>
            <line x1="15" y1="9" x2="15.01" y2="9"/>
        </symbol>


        <symbol id="more-h" viewBox="0 0 24 24" fill="none" stroke="currentColor" stroke-width="2">
            <circle cx="12" cy="12" r="1"/>
            <circle cx="19" cy="12" r="1"/>
            <circle cx="5" cy="12" r="1"/>
        </symbol>

        <symbol id="more-v" viewBox="0 0 24 24" fill="none" stroke="currentColor" stroke-width="2">
            <circle cx="12" cy="12" r="1"/>
            <circle cx="12" cy="5" r="1"/>
            <circle cx="12" cy="19" r="1"/>
        </symbol>

        <symbol id="mic" viewBox="0 0 24 24" fill="none" stroke="currentColor" stroke-width="2">
            <path d="M12 1a3 3 0 0 0-3 3v8a3 3 0 0 0 6 0V4a3 3 0 0 0-3-3z"/>
            <path d="M19 10v2a7 7 0 0 1-14 0v-2"/>
            <line x1="12" y1="19" x2="12" y2="23"/>
            <line x1="8" y1="23" x2="16" y2="23"/>
        </symbol>

        <symbol id="disc" viewBox="0 0 24 24" fill="none" stroke="currentColor" stroke-width="2">
            <circle cx="12" cy="12" r="10"/>
            <circle cx="12" cy="12" r="3"/>
        </symbol>

        <symbol id="check" viewBox="0 0 24 24" fill="none" stroke="currentColor" stroke-width="2">
            <polyline points="9 11 12 14 22 4"/>
            <path d="M21 12v7a2 2 0 0 1-2 2H5a2 2 0 0 1-2-2V5a2 2 0 0 1 2-2h11"/>
        </symbol>

        <symbol id="image" viewBox="0 0 24 24" fill="none" stroke="currentColor" stroke-width="2">
            <rect x="3" y="3" width="18" height="18" rx="2" ry="2"/>
            <circle cx="8.5" cy="8.5" r="1.5"/>
            <polyline points="21 15 16 10 5 21"/>
        </symbol>

        <symbol id="calendar" viewBox="0 0 24 24" fill="none" stroke="currentColor" stroke-width="2">
            <rect x="3" y="4" width="18" height="18" rx="2" ry="2"></rect>
            <line x1="16" y1="2" x2="16" y2="6"/>
            <line x1="8" y1="2" x2="8" y2="6"/>
            <line x1="3" y1="10" x2="21" y2="10"/>
        </symbol>

        <symbol id="type" viewBox="0 0 24 24" fill="none" stroke="currentColor" stroke-width="2">
            <polyline points="4 7 4 4 20 4 20 7"/>
            <line x1="9" y1="20" x2="15" y2="20"/>
            <line x1="12" y1="4" x2="12" y2="20"/>
        </symbol>

        <symbol id="message" viewBox="0 0 24 24" fill="none" stroke="currentColor" stroke-width="2">
            <path d="M21 15a2 2 0 0 1-2 2H7l-4 4V5a2 2 0 0 1 2-2h14a2 2 0 0 1 2 2z"/>
        </symbol>

        <symbol id="info" viewBox="0 0 24 24" fill="none" stroke="currentColor" stroke-width="2">
            <circle cx="12" cy="12" r="10"/>
            <line x1="12" y1="16" x2="12" y2="12"/>
            <line x1="12" y1="8" x2="12.01" y2="8"/>
        </symbol>

        <symbol id="archive" viewBox="0 0 24 24" fill="none" stroke="currentColor" stroke-width="2">
            <polyline points="21 8 21 21 3 21 3 8"></polyline>
            <rect x="1" y="3" width="22" height="5"></rect>
            <line x1="10" y1="12" x2="14" y2="12"></line>
        </symbol>
        
        <symbol id="logo" viewBox="0 0 202 51" style="fill-rule:evenodd;clip-rule:evenodd;stroke-linejoin:round;stroke-miterlimit:2;">
            <g transform="matrix(1,0,0,1,0.195949,0.246834)">
                <path d="M35.145,31.515C36.879,29.078 37.899,26.098 37.899,22.882C37.899,14.65 31.216,7.967 22.984,7.967C14.753,7.967 8.07,14.65 8.07,22.882C8.07,31.114 14.753,37.797 22.984,37.797C24.659,37.797 26.269,37.52 27.772,37.01L33.897,42.744C30.659,44.528 26.939,45.544 22.984,45.544C10.477,45.544 0.323,35.389 0.323,22.882C0.323,10.375 10.477,0.22 22.984,0.22C35.492,0.22 45.646,10.375 45.646,22.882C45.646,28.145 43.848,32.991 40.833,36.84L43.226,39.08L43.226,49.291L27.101,34.196L27.101,23.986L35.145,31.515Z" style="fill:rgb(53,64,80);"/>
            </g>
            <g transform="matrix(1,0,0,1,-1.47684,0.246834)">
                <path d="M67.142,30.703L67.142,44.271L61.21,44.271L61.21,30.703L67.142,30.703ZM49.941,44.271L49.941,27.96L49.984,27.96C50.552,20.623 56.694,14.837 64.176,14.837C71.658,14.837 77.8,20.623 78.368,27.96L78.411,27.96L78.411,44.271L72.48,44.271L72.48,29.183C72.48,29.146 72.48,29.109 72.479,29.072C72.42,24.54 68.722,20.88 64.176,20.88C59.63,20.88 55.932,24.54 55.873,29.072C55.873,29.109 55.872,29.146 55.872,29.183L55.872,44.271L49.941,44.271Z" style="fill:rgb(53,64,80);"/>
            </g>
            <g transform="matrix(6.12323e-17,-1,1,6.12323e-17,64.719,93.977)">
                <path d="M67.142,30.703L67.142,44.271L61.21,44.271L61.21,30.703L67.142,30.703ZM49.941,44.271L49.941,27.96L49.984,27.96C50.552,20.623 56.694,14.837 64.176,14.837C71.658,14.837 77.8,20.623 78.368,27.96L78.411,27.96L78.411,44.271L72.48,44.271L72.48,29.183C72.48,29.146 72.48,29.109 72.479,29.072C72.42,24.54 68.722,20.88 64.176,20.88C59.63,20.88 55.932,24.54 55.873,29.072C55.873,29.109 55.872,29.146 55.872,29.183L55.872,44.271L49.941,44.271Z" style="fill:rgb(53,64,80);"/>
            </g>
            <g transform="matrix(1.01662,0,0,1.03471,-3.43939,-0.284934)">
                <path d="M124.528,21.047L113.17,21.047L113.17,15.319L141.714,15.319L141.714,21.047L130.357,21.047L130.357,42.834L124.528,42.834L124.528,21.047Z" style="fill:rgb(53,64,80);"/>
            </g>
            <g transform="matrix(6.12323e-17,-1,1,6.12323e-17,128.415,93.977)">
                <path d="M67.142,30.703L67.142,44.271L61.21,44.271L61.21,30.703L67.142,30.703ZM49.941,44.271L49.941,27.96L49.984,27.96C50.552,20.623 56.694,14.837 64.176,14.837C71.658,14.837 77.8,20.623 78.368,27.96L78.411,27.96L78.411,44.271L72.48,44.271L72.48,29.183C72.48,29.146 72.48,29.109 72.479,29.072C72.42,24.54 68.722,20.88 64.176,20.88C59.63,20.88 55.932,24.54 55.873,29.072C55.873,29.109 55.872,29.146 55.872,29.183L55.872,44.271L49.941,44.271Z" style="fill:rgb(53,64,80);"/>
            </g>
            <g transform="matrix(1,0,0,1,-1.99826,0.258956)">
                <path d="M187.351,32.512L177.307,32.512L177.307,26.572L194.879,26.572C196.35,26.572 197.544,25.378 197.544,23.907C197.544,22.488 196.432,21.326 195.032,21.247L177.307,21.247L177.307,15.307L195.252,15.307L195.252,15.315C199.826,15.51 203.48,19.286 203.48,23.907C203.48,27.548 201.213,30.662 198.016,31.917C198.074,31.947 198.131,31.977 198.189,32.008C203.047,34.604 201.947,44.42 201.947,44.42L196.405,44.426C196.405,44.426 196.513,43.589 196.405,40.23C196.195,33.706 190.146,32.65 187.351,32.512Z" style="fill:rgb(53,64,80);"/>
            </g>
        </symbol>
    </defs>

    <use id="edit" xlink:href="#edit" class="sprite-symbol-usage"/>
    <use id="cross" xlink:href="#cross" class="sprite-symbol-usage"/>
    <use id="trash" xlink:href="#trash" class="sprite-symbol-usage"/>
    <use id="smile" xlink:href="#smile" class="sprite-symbol-usage"/>
    <use id="meh" xlink:href="#meh" class="sprite-symbol-usage"/>
    <use id="frown" xlink:href="#frown" class="sprite-symbol-usage"/>
    <use id="more-h" xlink:href="#more-h" class="sprite-symbol-usage"/>
    <use id="more-v" xlink:href="#more-v" class="sprite-symbol-usage"/>
    <use id="mic" xlink:href="#mic" class="sprite-symbol-usage"/>
    <use id="disc" xlink:href="#disc" class="sprite-symbol-usage"/>
    <use id="check" xlink:href="#check" class="sprite-symbol-usage"/>
    <use id="image" xlink:href="#image" class="sprite-symbol-usage"/>
    <use id="calendar" xlink:href="#calendar" class="sprite-symbol-usage"/>
    <use id="calendar" xlink:href="#calendar" class="sprite-symbol-usage"/>
    <use id="type" xlink:href="#type" class="sprite-symbol-usage"/>
    <use id="message" xlink:href="#message" class="sprite-symbol-usage"/>
    <use id="info" xlink:href="#info" class="sprite-symbol-usage"/>
    <use id="archive" xlink:href="#archive" class="sprite-symbol-usage"/>
    <use id="logo" xlink:href="#logo" class="sprite-symbol-usage"/>
</svg>