<?xml version="1.0" encoding="UTF-8" standalone="no"?>
<!DOCTYPE svg PUBLIC "-//W3C//DTD SVG 1.1//EN" "http://www.w3.org/Graphics/SVG/1.1/DTD/svg11.dtd">
<svg width="100%" height="100%" viewBox="0 0 202 51" version="1.1" xmlns="http://www.w3.org/2000/svg" xmlns:xlink="http://www.w3.org/1999/xlink" xml:space="preserve" xmlns:serif="http://www.serif.com/" style="fill-rule:evenodd;clip-rule:evenodd;stroke-linejoin:round;stroke-miterlimit:2;">
    <g transform="matrix(1,0,0,1,0.195949,0.246834)">
        <path d="M35.145,31.515C36.879,29.078 37.899,26.098 37.899,22.882C37.899,14.65 31.216,7.967 22.984,7.967C14.753,7.967 8.07,14.65 8.07,22.882C8.07,31.114 14.753,37.797 22.984,37.797C24.659,37.797 26.269,37.52 27.772,37.01L33.897,42.744C30.659,44.528 26.939,45.544 22.984,45.544C10.477,45.544 0.323,35.389 0.323,22.882C0.323,10.375 10.477,0.22 22.984,0.22C35.492,0.22 45.646,10.375 45.646,22.882C45.646,28.145 43.848,32.991 40.833,36.84L43.226,39.08L43.226,49.291L27.101,34.196L27.101,23.986L35.145,31.515Z" style="fill:rgb(53,64,80);"/>
    </g>
    <g transform="matrix(1,0,0,1,-1.47684,0.246834)">
        <path d="M67.142,30.703L67.142,44.271L61.21,44.271L61.21,30.703L67.142,30.703ZM49.941,44.271L49.941,27.96L49.984,27.96C50.552,20.623 56.694,14.837 64.176,14.837C71.658,14.837 77.8,20.623 78.368,27.96L78.411,27.96L78.411,44.271L72.48,44.271L72.48,29.183C72.48,29.146 72.48,29.109 72.479,29.072C72.42,24.54 68.722,20.88 64.176,20.88C59.63,20.88 55.932,24.54 55.873,29.072C55.873,29.109 55.872,29.146 55.872,29.183L55.872,44.271L49.941,44.271Z" style="fill:rgb(53,64,80);"/>
    </g>
    <g transform="matrix(6.12323e-17,-1,1,6.12323e-17,64.719,93.977)">
        <path d="M67.142,30.703L67.142,44.271L61.21,44.271L61.21,30.703L67.142,30.703ZM49.941,44.271L49.941,27.96L49.984,27.96C50.552,20.623 56.694,14.837 64.176,14.837C71.658,14.837 77.8,20.623 78.368,27.96L78.411,27.96L78.411,44.271L72.48,44.271L72.48,29.183C72.48,29.146 72.48,29.109 72.479,29.072C72.42,24.54 68.722,20.88 64.176,20.88C59.63,20.88 55.932,24.54 55.873,29.072C55.873,29.109 55.872,29.146 55.872,29.183L55.872,44.271L49.941,44.271Z" style="fill:rgb(53,64,80);"/>
    </g>
    <g transform="matrix(1.01662,0,0,1.03471,-3.43939,-0.284934)">
        <path d="M124.528,21.047L113.17,21.047L113.17,15.319L141.714,15.319L141.714,21.047L130.357,21.047L130.357,42.834L124.528,42.834L124.528,21.047Z" style="fill:rgb(53,64,80);"/>
    </g>
    <g transform="matrix(6.12323e-17,-1,1,6.12323e-17,128.415,93.977)">
        <path d="M67.142,30.703L67.142,44.271L61.21,44.271L61.21,30.703L67.142,30.703ZM49.941,44.271L49.941,27.96L49.984,27.96C50.552,20.623 56.694,14.837 64.176,14.837C71.658,14.837 77.8,20.623 78.368,27.96L78.411,27.96L78.411,44.271L72.48,44.271L72.48,29.183C72.48,29.146 72.48,29.109 72.479,29.072C72.42,24.54 68.722,20.88 64.176,20.88C59.63,20.88 55.932,24.54 55.873,29.072C55.873,29.109 55.872,29.146 55.872,29.183L55.872,44.271L49.941,44.271Z" style="fill:rgb(53,64,80);"/>
    </g>
    <g transform="matrix(1,0,0,1,-1.99826,0.258956)">
        <path d="M187.351,32.512L177.307,32.512L177.307,26.572L194.879,26.572C196.35,26.572 197.544,25.378 197.544,23.907C197.544,22.488 196.432,21.326 195.032,21.247L177.307,21.247L177.307,15.307L195.252,15.307L195.252,15.315C199.826,15.51 203.48,19.286 203.48,23.907C203.48,27.548 201.213,30.662 198.016,31.917C198.074,31.947 198.131,31.977 198.189,32.008C203.047,34.604 201.947,44.42 201.947,44.42L196.405,44.426C196.405,44.426 196.513,43.589 196.405,40.23C196.195,33.706 190.146,32.65 187.351,32.512Z" style="fill:rgb(53,64,80);"/>
    </g>
</svg>
